<svg display="none" xmlns="http://www.w3.org/2000/svg">
    <symbol id="phone">
        <path d="M7.50246 2.75722C7.19873 1.9979 6.46332 1.5 5.64551 1.5H2.89474C1.8483 1.5 1 2.3481 1 3.39453C1 12.2892 8.21078 19.5 17.1055 19.5C18.1519 19.5 19 18.6516 19 17.6052L19.0005 14.854C19.0005 14.0361 18.5027 13.3009 17.7434 12.9971L15.1069 11.9429C14.4249 11.6701 13.6483 11.7929 13.0839 12.2632L12.4035 12.8307C11.6089 13.4929 10.4396 13.4402 9.7082 12.7088L7.79222 10.7911C7.06079 10.0596 7.00673 8.89134 7.66895 8.09668L8.23633 7.4163C8.70661 6.85195 8.83049 6.07516 8.55766 5.39309L7.50246 2.75722Z" stroke="currentColor" stroke-width="1.5" stroke-linecap="round" stroke-linejoin="round"/>
    </symbol>
    <symbol id="arrow">
        <path d="M14.0004 0.635986H6.92969M14.0004 0.635986L14 7.70705M14.0004 0.635986L1.27246 13.3639" stroke="currentColor" stroke-linecap="round" stroke-linejoin="round"/>
    </symbol>
    <symbol id="burger">
        <path d="M1 14.5322H19M1 8.03223H19M1 1.53223H19" stroke="white" stroke-width="2" stroke-linecap="round" stroke-linejoin="round"/>
    </symbol>
    <symbol id="close">
        <path d="M15.9999 16.0644L8.5 8.56451M8.5 8.56451L1 1.06451M8.5 8.56451L16 1.06451M8.5 8.56451L1 16.0645" stroke="white" stroke-width="2" stroke-linecap="round" stroke-linejoin="round"/>
    </symbol>
    <symbol id="whatsapp">
        <path d="M17.0854 3.61958C16.1639 2.69369 15.0664 1.95955 13.8568 1.45995C12.6472 0.960345 11.3498 0.705271 10.0402 0.709588C4.55276 0.709588 0.0804022 5.15958 0.0804022 10.6196C0.0804022 12.3696 0.542714 14.0696 1.40704 15.5695L0 20.7095L5.27638 19.3295C6.73367 20.1195 8.37186 20.5395 10.0402 20.5395C15.5276 20.5395 20 16.0895 20 10.6296C20 7.97957 18.9648 5.48957 17.0854 3.61958ZM10.0402 18.8595C8.55276 18.8595 7.09548 18.4595 5.81909 17.7095L5.51759 17.5295L2.38191 18.3495L3.21608 15.3095L3.01508 14.9996C2.18849 13.6866 1.74967 12.1688 1.74874 10.6196C1.74874 6.07957 5.46734 2.37958 10.0301 2.37958C12.2412 2.37958 14.3216 3.23958 15.8794 4.79958C16.6509 5.56344 17.2622 6.47211 17.678 7.4729C18.0938 8.47368 18.3057 9.54665 18.3015 10.6296C18.3216 15.1695 14.603 18.8595 10.0402 18.8595ZM14.5829 12.6996C14.3317 12.5796 13.1055 11.9796 12.8844 11.8896C12.6533 11.8096 12.4925 11.7696 12.3216 12.0096C12.1508 12.2596 11.6784 12.8196 11.5377 12.9796C11.397 13.1496 11.2462 13.1696 10.995 13.0396C10.7437 12.9196 9.9397 12.6496 8.99497 11.8096C8.25126 11.1496 7.75879 10.3396 7.60804 10.0896C7.46734 9.83956 7.58794 9.70956 7.71859 9.57956C7.82914 9.46956 7.96985 9.28956 8.09045 9.14956C8.21105 9.00957 8.26131 8.89957 8.34171 8.73957C8.42211 8.56957 8.38191 8.42957 8.32161 8.30957C8.26131 8.18957 7.75879 6.96957 7.55779 6.46957C7.35678 5.98957 7.14573 6.04957 6.99497 6.03957H6.51256C6.34171 6.03957 6.0804 6.09957 5.84925 6.34957C5.62814 6.59957 4.98492 7.19957 4.98492 8.41957C4.98492 9.63956 5.8794 10.8196 6 10.9796C6.1206 11.1496 7.75879 13.6496 10.2513 14.7196C10.8442 14.9795 11.3065 15.1296 11.6683 15.2395C12.2613 15.4295 12.804 15.3995 13.2362 15.3395C13.7186 15.2695 14.7136 14.7396 14.9146 14.1596C15.1256 13.5796 15.1256 13.0896 15.0553 12.9796C14.9849 12.8696 14.8342 12.8196 14.5829 12.6996Z" fill="currentColor"/>
    </symbol>
    <symbol id="telegram">
        <path d="M11.9833 15.4965L15.5495 19.592C16.8695 21.1087 17.5306 21.8676 18.2225 21.682C18.9133 21.4976 19.1509 20.4998 19.625 18.5031L22.254 7.42761C22.9855 4.35206 23.3507 2.8154 22.5389 2.05651C21.7271 1.29763 20.3202 1.86207 17.5064 2.98984L4.45373 8.2265C2.20312 9.12983 1.07782 9.58094 1.00632 10.3565C0.997895 10.4355 0.997895 10.5152 1.00632 10.5943C1.07562 11.3709 2.19872 11.8254 4.44713 12.7354C5.46464 13.1476 5.97394 13.3543 6.33914 13.7487C6.38021 13.7931 6.41981 13.8391 6.45794 13.8865C6.79454 14.3087 6.93754 14.8643 7.22464 15.9709L7.76255 18.0454C8.04085 19.1231 8.18055 19.6631 8.54685 19.7365C8.91315 19.8098 9.23105 19.3631 9.86796 18.4687L11.9833 15.4965ZM11.9833 15.4965L11.6346 15.1298C11.2364 14.7098 11.0373 14.5009 11.0373 14.2409C11.0373 13.9809 11.2353 13.7709 11.6346 13.352L15.5649 9.21427" stroke="currentColor" stroke-width="2" stroke-linecap="round" stroke-linejoin="round"/>
    </symbol>
</svg>