<svg display="none" xmlns="http://www.w3.org/2000/svg">
    <symbol id="phone">
        <path d="M7.50246 2.75722C7.19873 1.9979 6.46332 1.5 5.64551 1.5H2.89474C1.8483 1.5 1 2.3481 1 3.39453C1 12.2892 8.21078 19.5 17.1055 19.5C18.1519 19.5 19 18.6516 19 17.6052L19.0005 14.854C19.0005 14.0361 18.5027 13.3009 17.7434 12.9971L15.1069 11.9429C14.4249 11.6701 13.6483 11.7929 13.0839 12.2632L12.4035 12.8307C11.6089 13.4929 10.4396 13.4402 9.7082 12.7088L7.79222 10.7911C7.06079 10.0596 7.00673 8.89134 7.66895 8.09668L8.23633 7.4163C8.70661 6.85195 8.83049 6.07516 8.55766 5.39309L7.50246 2.75722Z" stroke="currentColor" stroke-width="1.5" stroke-linecap="round" stroke-linejoin="round"/>
    </symbol>
    <symbol id="phone_call">
        <path d="M10.531 3.24614C10.1091 2.19153 9.08774 1.5 7.95193 1.5H4.13151C2.67817 1.5 1.5 2.67791 1.5 4.1313C1.5 16.485 11.5147 26.5 23.8681 26.5C25.3215 26.5 26.4994 25.3217 26.4994 23.8683L26.5 20.0472C26.5 18.9113 25.8087 17.8901 24.7541 17.4682L21.0925 16.0041C20.1452 15.6252 19.0666 15.7957 18.2828 16.4489L17.3378 17.2371C16.2342 18.1568 14.6103 18.0837 13.5944 17.0678L10.9334 14.4043C9.91754 13.3884 9.84247 11.7658 10.7622 10.6621L11.5502 9.71709C12.2034 8.93328 12.3754 7.85439 11.9965 6.90708L10.531 3.24614Z" stroke="currentColor" stroke-width="3" stroke-linecap="round" stroke-linejoin="round"/>
    </symbol>
    <symbol id="arrow">
        <path d="M14.0004 0.635986H6.92969M14.0004 0.635986L14 7.70705M14.0004 0.635986L1.27246 13.3639" stroke="currentColor" stroke-linecap="round" stroke-linejoin="round"/>
    </symbol>
    <symbol id="burger">
        <path d="M1 14.5322H19M1 8.03223H19M1 1.53223H19" stroke="white" stroke-width="2" stroke-linecap="round" stroke-linejoin="round"/>
    </symbol>
    <symbol id="close">
        <path d="M15.9999 16.0644L8.5 8.56451M8.5 8.56451L1 1.06451M8.5 8.56451L16 1.06451M8.5 8.56451L1 16.0645" stroke="white" stroke-width="2" stroke-linecap="round" stroke-linejoin="round"/>
    </symbol>
    <symbol id="whatsapp">
        <path d="M17.0854 3.61958C16.1639 2.69369 15.0664 1.95955 13.8568 1.45995C12.6472 0.960345 11.3498 0.705271 10.0402 0.709588C4.55276 0.709588 0.0804022 5.15958 0.0804022 10.6196C0.0804022 12.3696 0.542714 14.0696 1.40704 15.5695L0 20.7095L5.27638 19.3295C6.73367 20.1195 8.37186 20.5395 10.0402 20.5395C15.5276 20.5395 20 16.0895 20 10.6296C20 7.97957 18.9648 5.48957 17.0854 3.61958ZM10.0402 18.8595C8.55276 18.8595 7.09548 18.4595 5.81909 17.7095L5.51759 17.5295L2.38191 18.3495L3.21608 15.3095L3.01508 14.9996C2.18849 13.6866 1.74967 12.1688 1.74874 10.6196C1.74874 6.07957 5.46734 2.37958 10.0301 2.37958C12.2412 2.37958 14.3216 3.23958 15.8794 4.79958C16.6509 5.56344 17.2622 6.47211 17.678 7.4729C18.0938 8.47368 18.3057 9.54665 18.3015 10.6296C18.3216 15.1695 14.603 18.8595 10.0402 18.8595ZM14.5829 12.6996C14.3317 12.5796 13.1055 11.9796 12.8844 11.8896C12.6533 11.8096 12.4925 11.7696 12.3216 12.0096C12.1508 12.2596 11.6784 12.8196 11.5377 12.9796C11.397 13.1496 11.2462 13.1696 10.995 13.0396C10.7437 12.9196 9.9397 12.6496 8.99497 11.8096C8.25126 11.1496 7.75879 10.3396 7.60804 10.0896C7.46734 9.83956 7.58794 9.70956 7.71859 9.57956C7.82914 9.46956 7.96985 9.28956 8.09045 9.14956C8.21105 9.00957 8.26131 8.89957 8.34171 8.73957C8.42211 8.56957 8.38191 8.42957 8.32161 8.30957C8.26131 8.18957 7.75879 6.96957 7.55779 6.46957C7.35678 5.98957 7.14573 6.04957 6.99497 6.03957H6.51256C6.34171 6.03957 6.0804 6.09957 5.84925 6.34957C5.62814 6.59957 4.98492 7.19957 4.98492 8.41957C4.98492 9.63956 5.8794 10.8196 6 10.9796C6.1206 11.1496 7.75879 13.6496 10.2513 14.7196C10.8442 14.9795 11.3065 15.1296 11.6683 15.2395C12.2613 15.4295 12.804 15.3995 13.2362 15.3395C13.7186 15.2695 14.7136 14.7396 14.9146 14.1596C15.1256 13.5796 15.1256 13.0896 15.0553 12.9796C14.9849 12.8696 14.8342 12.8196 14.5829 12.6996Z" fill="currentColor"/>
    </symbol>
    <symbol id="telegram">
        <path d="M11.9833 15.4965L15.5495 19.592C16.8695 21.1087 17.5306 21.8676 18.2225 21.682C18.9133 21.4976 19.1509 20.4998 19.625 18.5031L22.254 7.42761C22.9855 4.35206 23.3507 2.8154 22.5389 2.05651C21.7271 1.29763 20.3202 1.86207 17.5064 2.98984L4.45373 8.2265C2.20312 9.12983 1.07782 9.58094 1.00632 10.3565C0.997895 10.4355 0.997895 10.5152 1.00632 10.5943C1.07562 11.3709 2.19872 11.8254 4.44713 12.7354C5.46464 13.1476 5.97394 13.3543 6.33914 13.7487C6.38021 13.7931 6.41981 13.8391 6.45794 13.8865C6.79454 14.3087 6.93754 14.8643 7.22464 15.9709L7.76255 18.0454C8.04085 19.1231 8.18055 19.6631 8.54685 19.7365C8.91315 19.8098 9.23105 19.3631 9.86796 18.4687L11.9833 15.4965ZM11.9833 15.4965L11.6346 15.1298C11.2364 14.7098 11.0373 14.5009 11.0373 14.2409C11.0373 13.9809 11.2353 13.7709 11.6346 13.352L15.5649 9.21427" stroke="currentColor" stroke-width="2" stroke-linecap="round" stroke-linejoin="round"/>
    </symbol>
    <symbol id="close_popup">
        <path d="M11.4628 10.9999L6.46289 6M6.46289 6L1.46289 1M6.46289 6L11.4629 1M6.46289 6L1.46289 11" stroke="white" stroke-width="2" stroke-linecap="round" stroke-linejoin="round"/>
    </symbol>
    <symbol id="garant-icon1">
        <path d="M40.5 23.1803L26.5 37.3004L19.5 30.2403M58 27.2929C58 50.4792 40.6118 60.8743 33.2402 64.2395L33.2309 64.2436C32.4557 64.5976 32.067 64.775 31.186 64.9275C30.6281 65.0242 29.3754 65.0242 28.8175 64.9275C27.933 64.7744 27.5403 64.5963 26.7588 64.2396C19.3873 60.8743 2 50.4791 2 27.2929V13.2968C2 9.34281 2 7.36432 2.76295 5.85409C3.43407 4.52565 4.50415 3.44638 5.82129 2.7695C7.31867 2 9.28032 2 13.2007 2H46.8007C50.7211 2 52.6785 2 54.1759 2.7695C55.493 3.44638 56.5667 4.52565 57.2378 5.85409C58 7.36285 58 9.33894 58 13.2852V27.2929Z" stroke="currentColor" stroke-width="3" stroke-linecap="round" stroke-linejoin="round"/>
    </symbol>
    <symbol id="garant-icon2">
        <path d="M29.9972 30.0007L12.5015 12.505M9.00234 17.7537L17.7502 9.00584L7.25277 3.75713L3.75363 7.25627L9.00234 17.7537ZM61.402 22.9149C63.0819 21.2364 64.2377 19.1057 64.7285 16.7822C65.2193 14.4587 65.0239 12.0426 64.1663 9.82814L59.1905 14.8039H52.1922V7.80563L57.168 2.82985C54.9534 1.97026 52.5365 1.77333 50.2119 2.26305C47.8873 2.75278 45.7553 3.90802 44.0757 5.58802C42.396 7.26803 41.2413 9.40027 40.7521 11.725C40.2629 14.0497 40.4603 16.4665 41.3204 18.681L18.681 41.3239C16.4665 40.4638 14.0497 40.2664 11.725 40.7556C9.40027 41.2448 7.26803 42.3995 5.58802 44.0792C3.90802 45.7588 2.75278 47.8908 2.26305 50.2154C1.77333 52.54 1.97026 54.9569 2.82986 57.1715L7.80213 52.1957H14.8004V59.194L9.82464 64.1698C12.0387 65.0294 14.455 65.2266 16.7792 64.7375C19.1034 64.2483 21.2352 63.0939 22.915 61.4148C24.5948 59.7358 25.7502 57.6045 26.2404 55.2805C26.7305 52.9565 26.5344 50.5402 25.6757 48.3257L48.3222 25.6792C50.5358 26.5354 52.9504 26.73 55.2725 26.2392C57.5946 25.7484 59.7241 24.5935 61.402 22.9149Z" stroke="currentColor" stroke-width="3" stroke-linecap="round" stroke-linejoin="round"/>
        <path d="M32.7852 42.2502L52.3943 61.8594C52.8331 62.299 53.3543 62.6477 53.928 62.8857C54.5017 63.1236 55.1167 63.2461 55.7378 63.2461C56.3589 63.2461 56.9739 63.1236 57.5476 62.8857C58.1213 62.6477 58.6424 62.299 59.0812 61.8594L61.8525 59.088C62.2921 58.6493 62.6409 58.1281 62.8788 57.5544C63.1168 56.9807 63.2393 56.3657 63.2393 55.7446C63.2393 55.1235 63.1168 54.5085 62.8788 53.9348C62.6409 53.3611 62.2921 52.8399 61.8525 52.4012L42.2433 32.792" stroke="currentColor" stroke-width="3" stroke-linecap="round" stroke-linejoin="round"/>
    </symbol>
    <symbol id="garant-icon3">
        <path d="M15.9998 44L22.9997 51L36.9995 37M29.9996 2.00304C29.6654 2 29.2901 2 28.8611 2H13.2005C9.28022 2 7.3186 2 5.82124 2.76295C4.50412 3.43407 3.43405 4.50415 2.76294 5.82129C2 7.31867 2 9.28032 2 13.2007V53.8007C2 57.721 2 59.6802 2.76294 61.1776C3.43405 62.4947 4.50412 63.5667 5.82124 64.2378C7.31715 65 9.27641 65 13.1891 65L39.8103 65C43.7229 65 45.6794 65 47.1752 64.2378C48.4924 63.5667 49.566 62.4947 50.2371 61.1776C50.9993 59.6817 50.9993 57.7252 50.9993 53.8125V24.1399C50.9993 23.7104 50.9992 23.3346 50.996 23M29.9996 2.00304C30.9993 2.01214 31.6318 2.04846 32.2355 2.19341C32.9498 2.36489 33.632 2.64843 34.2583 3.03223C34.9645 3.46498 35.5709 4.07137 36.7808 5.28125L47.7198 16.2204C48.9305 17.4311 49.5324 18.0348 49.9653 18.7412C50.3491 19.3675 50.633 20.0504 50.8045 20.7646C50.9494 21.3682 50.9865 22.0008 50.996 23M29.9996 2.00304V11.8C29.9996 15.7204 29.9996 17.6792 30.7626 19.1766C31.4337 20.4937 32.5037 21.5667 33.8208 22.2378C35.3167 23 37.276 23 41.1887 23H50.996M50.996 23H51" stroke="currentColor" stroke-width="3" stroke-linecap="round" stroke-linejoin="round"/>
    </symbol>
    <symbol id="garant-icon4">
        <path d="M20.9884 47.5H3.4617V65M35.0097 19.5H52.5363V2M2 23.0119C3.96539 18.1548 7.25601 13.9456 11.4978 10.8628C15.7397 7.77995 20.767 5.94632 26.0001 5.57178C31.2332 5.19723 36.4635 6.29591 41.1023 8.74314C45.7412 11.1904 49.5962 14.8889 52.2353 19.4164M54 43.9897C52.0346 48.8468 48.744 53.056 44.5022 56.1389C40.2603 59.2217 35.2381 61.053 30.005 61.4275C24.7719 61.8021 19.5374 60.7036 14.8985 58.2563C10.2597 55.8091 6.40205 52.1113 3.76294 47.5837" stroke="currentColor" stroke-width="3" stroke-linecap="round" stroke-linejoin="round"/>
    </symbol>
    <symbol id="line-slider">
        <path d="M467.833 3C467.833 4.47276 469.027 5.66667 470.5 5.66667C471.973 5.66667 473.167 4.47276 473.167 3C473.167 1.52724 471.973 0.333333 470.5 0.333333C469.027 0.333333 467.833 1.52724 467.833 3ZM0 3V3.5H470.5V3V2.5H0V3Z" fill="#3D3D3D"/>
    </symbol>
    <symbol id="star">
        <path d="M0.122981 5.70935C-0.1161 5.49295 0.0137692 5.10175 0.337147 5.06422L4.91926 4.53228C5.05105 4.51699 5.16553 4.43598 5.22112 4.31803L7.15379 0.217092C7.29019 -0.072327 7.71057 -0.0723826 7.84696 0.217037L9.77963 4.31794C9.83522 4.4359 9.94896 4.51712 10.0808 4.53241L14.6631 5.06422C14.9865 5.10175 15.116 5.49307 14.8769 5.70947L11.4896 8.77594C11.3922 8.86413 11.3488 8.99541 11.3747 9.12282L12.2736 13.5524C12.3371 13.865 11.9972 14.1072 11.713 13.9515L7.68673 11.7451C7.57092 11.6816 7.43023 11.6819 7.31442 11.7454L3.2877 13.9509C3.00354 14.1066 2.663 13.865 2.72646 13.5523L3.62558 9.12309C3.65145 8.99568 3.60818 8.86411 3.51074 8.77591L0.122981 5.70935Z" fill="currentColor"/>
    </symbol>
</svg>