<svg width="28" height="28" viewBox="0 0 28 28" fill="none" xmlns="http://www.w3.org/2000/svg">
<path d="M10.531 3.24614C10.1091 2.19153 9.08774 1.5 7.95193 1.5H4.13151C2.67817 1.5 1.5 2.67791 1.5 4.1313C1.5 16.485 11.5147 26.5 23.8681 26.5C25.3215 26.5 26.4994 25.3217 26.4994 23.8683L26.5 20.0472C26.5 18.9113 25.8087 17.8901 24.7541 17.4682L21.0925 16.0041C20.1452 15.6252 19.0666 15.7957 18.2828 16.4489L17.3378 17.2371C16.2342 18.1568 14.6103 18.0837 13.5944 17.0678L10.9334 14.4043C9.91754 13.3884 9.84247 11.7658 10.7622 10.6621L11.5502 9.71709C12.2034 8.93328 12.3754 7.85439 11.9965 6.90708L10.531 3.24614Z" stroke="#0D0D0D" stroke-width="3" stroke-linecap="round" stroke-linejoin="round"/>
</svg>
