<svg width="71" height="63" viewBox="0 0 71 63" fill="none" xmlns="http://www.w3.org/2000/svg">
<g clip-path="url(#clip0_1_649)">
<path fill-rule="evenodd" clip-rule="evenodd" d="M17.4306 1.36502C16.4478 1.7353 15.7673 2.4099 15.3094 3.468L15.0258 4.12354L14.7218 3.81755C13.2101 2.29561 11.0738 3.06345 10.2691 5.41783C10.2119 5.58527 10.1785 5.5837 9.76356 5.39408C8.41878 4.7797 6.878 5.64142 6.44471 7.25025C6.34319 7.6274 6.29031 7.6898 6.11407 7.64094C4.49826 7.19242 3.13319 8.19376 2.89105 10.0051L2.82481 10.5H2.3105C0.071294 10.5 -0.852928 13.997 0.961365 15.6049C2.29839 16.7898 4.31169 15.8544 4.56904 13.9287L4.633 13.4505L5.21697 13.4545C6.23049 13.4612 7.06427 12.8334 7.46206 11.7641C7.56079 11.4986 7.64824 11.2718 7.65652 11.26C7.66469 11.2483 7.85592 11.3048 8.08142 11.3857C9.24035 11.8013 10.542 11.1319 11.0757 9.84592L11.225 9.48596L11.8132 9.78455C12.9384 10.356 14.0257 10.1268 14.8857 9.13714L15.3295 8.62632L15.5206 8.9641C17.1976 11.9275 20.7668 10.9427 21.5323 7.30515C22.2562 3.86527 19.8901 0.438501 17.4306 1.36502ZM18.8237 2.62046C20.4679 3.31214 20.971 6.84643 19.6765 8.61279C18.3427 10.4329 16.263 9.17111 16.0308 6.40114C15.8277 3.97622 17.3021 1.98034 18.8237 2.62046ZM13.6717 4.50382C14.1141 4.79554 14.4657 5.55036 14.5208 6.32644C14.7081 8.96066 12.1902 9.85801 11.483 7.40903C10.9363 5.51566 12.3536 3.63429 13.6717 4.50382ZM9.45425 6.69598C10.3674 7.46956 10.3439 9.33521 9.41171 10.0734C8.62917 10.6932 7.64358 9.90614 7.53089 8.57173C7.39904 7.00937 8.52631 5.91001 9.45425 6.69598ZM5.79989 8.95504C6.66844 9.64297 6.66844 11.357 5.79989 12.045C5.26405 12.4692 4.6566 12.2072 4.28953 11.3938C3.64731 9.97 4.77736 8.14531 5.79989 8.95504ZM12.4755 10.8572C5.99145 12.2243 0.90093 18.1002 1.23177 23.8357C1.30297 25.0704 1.39114 25.4909 2.09484 27.9511C3.91285 34.3076 4.55011 38.661 4.48926 44.3082L4.45553 47.4337L4.78553 48.2957C7.27134 54.7892 16.1159 54.6328 18.1675 48.0588C18.7456 46.2063 18.3973 44.3407 17.0933 42.3051C13.8497 37.2415 14.2788 31.1098 18.2768 25.3953C20.3698 22.4039 21.6073 19.6901 21.0907 19.2249C20.5964 18.7801 20.2008 18.9928 19.9186 19.8554C19.4542 21.2756 18.6211 22.7645 17.0028 25.0676C12.9871 30.7825 12.6565 37.74 16.1458 43.1101C19.941 48.9509 12.2382 55.0286 7.34999 50.05C5.84026 48.5124 5.61383 47.7141 5.70603 44.2561C5.8473 38.9615 5.10893 34.0117 3.16507 27.2217C2.88619 26.2476 2.60191 25.1244 2.5334 24.7257C0.942738 15.4687 15.6859 7.22784 19.7663 15.0931C20.2108 15.9499 20.276 16.018 20.6561 16.0203C22.2092 16.0296 20.052 12.556 17.8264 11.4637C16.4123 10.7697 14.1219 10.5101 12.4755 10.8572ZM2.89166 11.9448C3.18638 12.2013 3.36894 12.7246 3.36894 13.313C3.36894 15.116 1.75271 15.5294 1.30142 13.842C0.939531 12.489 2.02664 11.1922 2.89166 11.9448ZM4.30392 25.9905C4.18387 26.1442 4.10813 26.3288 4.13545 26.4008C4.16287 26.4726 4.23603 26.7211 4.29812 26.953C4.47964 27.6318 5.19627 27.799 5.45684 27.2232C5.84066 26.3751 4.83977 25.3047 4.30392 25.9905ZM5.04539 28.4408C4.86563 28.6216 4.89233 29.1003 5.12849 29.9309C5.68647 31.8933 6.43146 35.7594 6.73447 38.2654C6.92849 39.8698 7.25251 40.2924 7.88397 39.7649C8.34986 39.3756 6.61494 29.2713 5.94209 28.455C5.79928 28.2818 5.21252 28.2725 5.04539 28.4408Z" fill="white"/>
<path fill-rule="evenodd" clip-rule="evenodd" d="M29.5066 1.36502C30.4894 1.7353 31.1699 2.4099 31.6278 3.468L31.9114 4.12354L32.2154 3.81755C33.7271 2.29561 35.8634 3.06345 36.6681 5.41783C36.7254 5.58527 36.7587 5.5837 37.1736 5.39408C38.5184 4.7797 40.0592 5.64142 40.4925 7.25025C40.594 7.6274 40.6468 7.6898 40.8231 7.64094C42.4389 7.19242 43.8041 8.19376 44.0462 10.0051L44.1124 10.5H44.6267C46.866 10.5 47.7902 13.997 45.9758 15.6049C44.6389 16.7898 42.6256 15.8544 42.3682 13.9287L42.3042 13.4505L41.7203 13.4545C40.7068 13.4612 39.8729 12.8334 39.4751 11.7641C39.3764 11.4986 39.2889 11.2718 39.2808 11.26C39.2726 11.2483 39.0812 11.3048 38.8558 11.3857C37.6969 11.8013 36.3953 11.1319 35.8616 9.84592L35.7122 9.48596L35.124 9.78455C33.9988 10.356 32.9115 10.1268 32.0515 9.13714L31.6077 8.62632L31.4166 8.9641C29.7396 11.9275 26.1704 10.9427 25.405 7.30515C24.681 3.86527 27.0471 0.438501 29.5066 1.36502ZM28.1135 2.62046C26.4694 3.31214 25.9662 6.84643 27.2607 8.61279C28.5945 10.4329 30.6742 9.17111 30.9064 6.40114C31.1095 3.97622 29.6351 1.98034 28.1135 2.62046ZM33.2655 4.50382C32.8231 4.79554 32.4715 5.55036 32.4164 6.32644C32.2291 8.96066 34.747 9.85801 35.4542 7.40903C36.0009 5.51566 34.5836 3.63429 33.2655 4.50382ZM37.483 6.69598C36.5698 7.46956 36.5933 9.33521 37.5255 10.0734C38.3081 10.6932 39.2936 9.90614 39.4063 8.57173C39.5382 7.00937 38.4109 5.91001 37.483 6.69598ZM41.1373 8.95504C40.2687 9.64297 40.2687 11.357 41.1373 12.045C41.6732 12.4692 42.2806 12.2072 42.6477 11.3938C43.2899 9.97 42.1599 8.14531 41.1373 8.95504ZM34.4617 10.8572C40.9458 12.2243 46.0362 18.1002 45.7054 23.8357C45.6343 25.0704 45.5461 25.4909 44.8423 27.9511C43.0244 34.3076 42.3871 38.661 42.448 44.3082L42.4817 47.4337L42.1517 48.2957C39.6658 54.7892 30.8213 54.6328 28.7697 48.0588C28.1916 46.2063 28.5399 44.3407 29.8439 42.3051C33.0875 37.2415 32.6584 31.1098 28.6604 25.3953C26.5674 22.4039 25.3299 19.6901 25.8465 19.2249C26.3408 18.7801 26.7364 18.9928 27.0186 19.8554C27.4831 21.2756 28.3161 22.7645 29.9344 25.0676C33.9501 30.7825 34.2807 37.74 30.7914 43.1101C26.9962 48.9509 34.699 55.0286 39.5873 50.05C41.0969 48.5124 41.3234 47.7141 41.2312 44.2561C41.0899 38.9615 41.8283 34.0117 43.7722 27.2217C44.051 26.2476 44.3354 25.1244 44.4038 24.7257C45.9945 15.4687 31.2514 7.22784 27.1709 15.0931C26.7264 15.9499 26.6612 16.018 26.2811 16.0203C24.728 16.0296 26.8852 12.556 29.1108 11.4637C30.5249 10.7697 32.8153 10.5101 34.4617 10.8572ZM44.0456 11.9448C43.7509 12.2013 43.5683 12.7246 43.5683 13.313C43.5683 15.116 45.1845 15.5294 45.6357 13.842C45.9977 12.489 44.9106 11.1922 44.0456 11.9448ZM42.6333 25.9905C42.7534 26.1442 42.8291 26.3288 42.8018 26.4008C42.7743 26.4726 42.7012 26.7211 42.6391 26.953C42.4576 27.6318 41.741 27.799 41.4803 27.2232C41.0966 26.3751 42.0974 25.3047 42.6333 25.9905ZM41.8919 28.4408C42.0715 28.6216 42.0448 29.1003 41.8087 29.9309C41.2507 31.8933 40.5058 35.7594 40.2028 38.2654C40.0087 39.8698 39.6847 40.2924 39.0532 39.7649C38.5874 39.3756 40.3223 29.2713 40.9951 28.455C41.138 28.2818 41.7247 28.2725 41.8919 28.4408Z" fill="white"/>
<path d="M66.4545 52.658C66.1595 52.2519 66.0754 1.95338 66.369 1.62666C66.5485 1.42693 69.5034 1.33098 69.7784 1.5158C70.6692 2.11476 70.0536 2.68633 68.5177 2.68633H67.4396V4.19702V5.7077H68.0892C68.8699 5.7077 69.1988 5.89253 69.1988 6.33125C69.1988 6.81884 68.9674 6.95792 68.1567 6.95792H67.4396V8.20816V9.45838H68.5308C69.9308 9.45838 70.4312 9.81272 69.9691 10.477C69.8186 10.6934 69.7302 10.7086 68.6237 10.7086H67.4396V11.947V13.1855L68.1637 13.2268C68.9654 13.2723 69.2247 13.4312 69.2247 13.8767C69.2247 14.3534 69.0391 14.4593 68.2031 14.4593H67.4396V15.7616V17.064H68.6273C69.7851 17.064 69.8193 17.0706 69.9873 17.3287C70.4237 17.9993 69.8 18.365 68.3969 18.2613L67.4396 18.1905V19.5026V20.8145H68.2099C68.8885 20.8145 68.9993 20.8422 69.1412 21.0462C69.5365 21.6143 69.0834 22.0648 68.117 22.0648H67.4396V23.315V24.5652H68.578C69.8022 24.5652 70.1302 24.6974 70.1302 25.1904C70.1302 25.6833 69.8022 25.8155 68.578 25.8155H67.4396V27.0657V28.3159H68.164C68.9474 28.3159 69.3023 28.5108 69.3023 28.941C69.3023 29.3713 68.9474 29.5662 68.164 29.5662H67.4396V30.8164V32.0666H68.578C69.813 32.0666 70.1302 32.198 70.1302 32.7095C70.1302 33.2173 69.8814 33.3169 68.6136 33.3169H67.4396V34.5557V35.7945L68.2259 35.8345C69.7962 35.9143 69.7716 37.0676 68.1996 37.0676H67.4396V38.3065V39.5455L68.6388 39.5838C69.9217 39.6249 70.1325 39.7174 70.1287 40.239C70.1252 40.7098 69.994 40.7634 68.7113 40.8182L67.4913 40.8703V42.1205V43.3707L68.2974 43.4228C69.135 43.477 69.2991 43.5709 69.2991 43.9959C69.2991 44.4207 69.135 44.5146 68.2974 44.5688L67.4913 44.6209V45.8712V47.1214L68.7113 47.1735C70.0258 47.2297 70.1255 47.2751 70.1287 47.8188C70.1313 48.2967 69.8118 48.4237 68.6066 48.4237H67.5431V50.0387V51.6535H68.6616C69.8425 51.6535 70.0527 51.7218 70.1779 52.1466C70.2286 52.318 70.1742 52.4522 69.9715 52.6563L69.6963 52.9333L68.1348 52.8775C66.8793 52.8327 66.55 52.7897 66.4545 52.658Z" fill="white"/>
<path d="M55.1915 1.02718C55.0904 0.925464 54.9266 0.925464 54.8255 1.02718L53.1792 2.68476C53.0781 2.78648 53.0781 2.95139 53.1792 3.05311C53.2801 3.15483 53.4439 3.15483 53.545 3.05311L55.0084 1.57971L56.472 3.05311C56.573 3.15483 56.7369 3.15483 56.8378 3.05311C56.9389 2.95139 56.9389 2.78648 56.8378 2.68476L55.1915 1.02718ZM54.8255 53.2799C54.9266 53.3815 55.0904 53.3815 55.1915 53.2799L56.8378 51.6223C56.9389 51.5206 56.9389 51.3556 56.8378 51.254C56.7369 51.1522 56.573 51.1522 56.472 51.254L55.0084 52.7273L53.545 51.254C53.4439 51.1522 53.2801 51.1522 53.1792 51.254C53.0781 51.3556 53.0781 51.5206 53.1792 51.6223L54.8255 53.2799ZM54.7498 2.00551C54.7498 2.14935 54.8656 2.26596 55.0084 2.26596C55.1514 2.26596 55.2672 2.14935 55.2672 2.00551H54.7498ZM55.2672 4.12323C55.2672 3.97938 55.1514 3.86277 55.0084 3.86277C54.8656 3.86277 54.7498 3.97938 54.7498 4.12323H55.2672ZM54.7498 5.71153C54.7498 5.85538 54.8656 5.97199 55.0084 5.97199C55.1514 5.97199 55.2672 5.85538 55.2672 5.71153H54.7498ZM55.2672 7.82925C55.2672 7.68541 55.1514 7.5688 55.0084 7.5688C54.8656 7.5688 54.7498 7.68541 54.7498 7.82925H55.2672ZM54.7498 9.41756C54.7498 9.5614 54.8656 9.67801 55.0084 9.67801C55.1514 9.67801 55.2672 9.5614 55.2672 9.41756H54.7498ZM55.2672 11.5353C55.2672 11.3914 55.1514 11.2748 55.0084 11.2748C54.8656 11.2748 54.7498 11.3914 54.7498 11.5353H55.2672ZM54.7498 13.1236C54.7498 13.2674 54.8656 13.384 55.0084 13.384C55.1514 13.384 55.2672 13.2674 55.2672 13.1236H54.7498ZM55.2672 15.2413C55.2672 15.0974 55.1514 14.9809 55.0084 14.9809C54.8656 14.9809 54.7498 15.0974 54.7498 15.2413H55.2672ZM54.7498 16.8295C54.7498 16.9735 54.8656 17.09 55.0084 17.09C55.1514 17.09 55.2672 16.9735 55.2672 16.8295H54.7498ZM55.2672 18.9473C55.2672 18.8035 55.1514 18.6868 55.0084 18.6868C54.8656 18.6868 54.7498 18.8035 54.7498 18.9473H55.2672ZM54.7498 20.5356C54.7498 20.6794 54.8656 20.7961 55.0084 20.7961C55.1514 20.7961 55.2672 20.6794 55.2672 20.5356H54.7498ZM55.2672 22.6534C55.2672 22.5095 55.1514 22.3929 55.0084 22.3929C54.8656 22.3929 54.7498 22.5095 54.7498 22.6534H55.2672ZM54.7498 24.2416C54.7498 24.3855 54.8656 24.5021 55.0084 24.5021C55.1514 24.5021 55.2672 24.3855 55.2672 24.2416H54.7498ZM55.2672 26.3594C55.2672 26.2156 55.1514 26.0989 55.0084 26.0989C54.8656 26.0989 54.7498 26.2156 54.7498 26.3594H55.2672ZM54.7498 27.9477C54.7498 28.0915 54.8656 28.2082 55.0084 28.2082C55.1514 28.2082 55.2672 28.0915 55.2672 27.9477H54.7498ZM55.2672 30.0654C55.2672 29.9215 55.1514 29.805 55.0084 29.805C54.8656 29.805 54.7498 29.9215 54.7498 30.0654H55.2672ZM54.7498 31.6537C54.7498 31.7975 54.8656 31.9142 55.0084 31.9142C55.1514 31.9142 55.2672 31.7975 55.2672 31.6537H54.7498ZM55.2672 33.7715C55.2672 33.6275 55.1514 33.511 55.0084 33.511C54.8656 33.511 54.7498 33.6275 54.7498 33.7715H55.2672ZM54.7498 35.3598C54.7498 35.5036 54.8656 35.6201 55.0084 35.6201C55.1514 35.6201 55.2672 35.5036 55.2672 35.3598H54.7498ZM55.2672 37.4774C55.2672 37.3336 55.1514 37.2169 55.0084 37.2169C54.8656 37.2169 54.7498 37.3336 54.7498 37.4774H55.2672ZM54.7498 39.0658C54.7498 39.2096 54.8656 39.3262 55.0084 39.3262C55.1514 39.3262 55.2672 39.2096 55.2672 39.0658H54.7498ZM55.2672 41.1835C55.2672 41.0396 55.1514 40.923 55.0084 40.923C54.8656 40.923 54.7498 41.0396 54.7498 41.1835H55.2672ZM54.7498 42.7717C54.7498 42.9157 54.8656 43.0322 55.0084 43.0322C55.1514 43.0322 55.2672 42.9157 55.2672 42.7717H54.7498ZM55.2672 44.8895C55.2672 44.7457 55.1514 44.629 55.0084 44.629C54.8656 44.629 54.7498 44.7457 54.7498 44.8895H55.2672ZM54.7498 46.4778C54.7498 46.6216 54.8656 46.7383 55.0084 46.7383C55.1514 46.7383 55.2672 46.6216 55.2672 46.4778H54.7498ZM55.2672 48.5955C55.2672 48.4517 55.1514 48.3351 55.0084 48.3351C54.8656 48.3351 54.7498 48.4517 54.7498 48.5955H55.2672ZM54.7498 50.1838C54.7498 50.3276 54.8656 50.4443 55.0084 50.4443C55.1514 50.4443 55.2672 50.3276 55.2672 50.1838H54.7498ZM55.2672 52.3016C55.2672 52.1576 55.1514 52.0411 55.0084 52.0411C54.8656 52.0411 54.7498 52.1576 54.7498 52.3016H55.2672ZM54.7498 1.21136V2.00551H55.2672V1.21136H54.7498ZM54.7498 4.12323V5.71153H55.2672V4.12323H54.7498ZM54.7498 7.82925V9.41756H55.2672V7.82925H54.7498ZM54.7498 11.5353V13.1236H55.2672V11.5353H54.7498ZM54.7498 15.2413V16.8295H55.2672V15.2413H54.7498ZM54.7498 18.9473V20.5356H55.2672V18.9473H54.7498ZM54.7498 22.6534V24.2416H55.2672V22.6534H54.7498ZM54.7498 26.3594V27.9477H55.2672V26.3594H54.7498ZM54.7498 30.0654V31.6537H55.2672V30.0654H54.7498ZM54.7498 33.7715V35.3598H55.2672V33.7715H54.7498ZM54.7498 37.4774V39.0658H55.2672V37.4774H54.7498ZM54.7498 41.1835V42.7717H55.2672V41.1835H54.7498ZM54.7498 44.8895V46.4778H55.2672V44.8895H54.7498ZM54.7498 48.5955V50.1838H55.2672V48.5955H54.7498ZM54.7498 52.3016V53.0957H55.2672V52.3016H54.7498ZM55.3744 0.843005C55.1723 0.639571 54.8447 0.639571 54.6426 0.843005L51.3498 4.15817C51.1477 4.3616 51.1477 4.69143 51.3498 4.89487C51.5518 5.0983 51.8794 5.0983 52.0816 4.89487L55.0084 1.94806L57.9354 4.89487C58.1375 5.0983 58.4652 5.0983 58.6672 4.89487C58.8693 4.69143 58.8693 4.3616 58.6672 4.15817L55.3744 0.843005ZM54.6426 53.464C54.8447 53.6675 55.1723 53.6675 55.3744 53.464L58.6672 50.1489C58.8693 49.9455 58.8693 49.6156 58.6672 49.4122C58.4652 49.2088 58.1375 49.2088 57.9354 49.4122L55.0084 52.359L52.0816 49.4122C51.8794 49.2088 51.5518 49.2088 51.3498 49.4122C51.1477 49.6156 51.1477 49.9455 51.3498 50.1489L54.6426 53.464ZM54.4911 2.00551C54.4911 2.2932 54.7228 2.52643 55.0084 2.52643C55.2942 2.52643 55.5259 2.2932 55.5259 2.00551H54.4911ZM55.5259 4.12323C55.5259 3.83554 55.2942 3.6023 55.0084 3.6023C54.7228 3.6023 54.4911 3.83554 54.4911 4.12323H55.5259ZM54.4911 5.71153C54.4911 5.99922 54.7228 6.23246 55.0084 6.23246C55.2942 6.23246 55.5259 5.99922 55.5259 5.71153H54.4911ZM55.5259 7.82925C55.5259 7.54156 55.2942 7.30833 55.0084 7.30833C54.7228 7.30833 54.4911 7.54156 54.4911 7.82925H55.5259ZM54.4911 9.41756C54.4911 9.70525 54.7228 9.93848 55.0084 9.93848C55.2942 9.93848 55.5259 9.70525 55.5259 9.41756H54.4911ZM55.5259 11.5353C55.5259 11.2476 55.2942 11.0144 55.0084 11.0144C54.7228 11.0144 54.4911 11.2476 54.4911 11.5353H55.5259ZM54.4911 13.1236C54.4911 13.4113 54.7228 13.6445 55.0084 13.6445C55.2942 13.6445 55.5259 13.4113 55.5259 13.1236H54.4911ZM55.5259 15.2413C55.5259 14.9536 55.2942 14.7204 55.0084 14.7204C54.7228 14.7204 54.4911 14.9536 54.4911 15.2413H55.5259ZM54.4911 16.8295C54.4911 17.1173 54.7228 17.3505 55.0084 17.3505C55.2942 17.3505 55.5259 17.1173 55.5259 16.8295H54.4911ZM55.5259 18.9473C55.5259 18.6596 55.2942 18.4263 55.0084 18.4263C54.7228 18.4263 54.4911 18.6596 54.4911 18.9473H55.5259ZM54.4911 20.5356C54.4911 20.8234 54.7228 21.0566 55.0084 21.0566C55.2942 21.0566 55.5259 20.8234 55.5259 20.5356H54.4911ZM55.5259 22.6534C55.5259 22.3657 55.2942 22.1324 55.0084 22.1324C54.7228 22.1324 54.4911 22.3657 54.4911 22.6534H55.5259ZM54.4911 24.2416C54.4911 24.5294 54.7228 24.7626 55.0084 24.7626C55.2942 24.7626 55.5259 24.5294 55.5259 24.2416H54.4911ZM55.5259 26.3594C55.5259 26.0716 55.2942 25.8384 55.0084 25.8384C54.7228 25.8384 54.4911 26.0716 54.4911 26.3594H55.5259ZM54.4911 27.9477C54.4911 28.2353 54.7228 28.4685 55.0084 28.4685C55.2942 28.4685 55.5259 28.2353 55.5259 27.9477H54.4911ZM55.5259 30.0654C55.5259 29.7777 55.2942 29.5445 55.0084 29.5445C54.7228 29.5445 54.4911 29.7777 54.4911 30.0654H55.5259ZM54.4911 31.6537C54.4911 31.9414 54.7228 32.1746 55.0084 32.1746C55.2942 32.1746 55.5259 31.9414 55.5259 31.6537H54.4911ZM55.5259 33.7715C55.5259 33.4837 55.2942 33.2505 55.0084 33.2505C54.7228 33.2505 54.4911 33.4837 54.4911 33.7715H55.5259ZM54.4911 35.3598C54.4911 35.6474 54.7228 35.8806 55.0084 35.8806C55.2942 35.8806 55.5259 35.6474 55.5259 35.3598H54.4911ZM55.5259 37.4774C55.5259 37.1898 55.2942 36.9565 55.0084 36.9565C54.7228 36.9565 54.4911 37.1898 54.4911 37.4774H55.5259ZM54.4911 39.0658C54.4911 39.3535 54.7228 39.5867 55.0084 39.5867C55.2942 39.5867 55.5259 39.3535 55.5259 39.0658H54.4911ZM55.5259 41.1835C55.5259 40.8958 55.2942 40.6626 55.0084 40.6626C54.7228 40.6626 54.4911 40.8958 54.4911 41.1835H55.5259ZM54.4911 42.7717C54.4911 43.0595 54.7228 43.2927 55.0084 43.2927C55.2942 43.2927 55.5259 43.0595 55.5259 42.7717H54.4911ZM55.5259 44.8895C55.5259 44.6018 55.2942 44.3685 55.0084 44.3685C54.7228 44.3685 54.4911 44.6018 54.4911 44.8895H55.5259ZM54.4911 46.4778C54.4911 46.7654 54.7228 46.9987 55.0084 46.9987C55.2942 46.9987 55.5259 46.7654 55.5259 46.4778H54.4911ZM55.5259 48.5955C55.5259 48.3079 55.2942 48.0746 55.0084 48.0746C54.7228 48.0746 54.4911 48.3079 54.4911 48.5955H55.5259ZM54.4911 50.1838C54.4911 50.4715 54.7228 50.7048 55.0084 50.7048C55.2942 50.7048 55.5259 50.4715 55.5259 50.1838H54.4911ZM55.5259 52.3016C55.5259 52.0138 55.2942 51.7806 55.0084 51.7806C54.7228 51.7806 54.4911 52.0138 54.4911 52.3016H55.5259ZM54.4911 1.21136V2.00551H55.5259V1.21136H54.4911ZM54.4911 4.12323V5.71153H55.5259V4.12323H54.4911ZM54.4911 7.82925V9.41756H55.5259V7.82925H54.4911ZM54.4911 11.5353V13.1236H55.5259V11.5353H54.4911ZM54.4911 15.2413V16.8295H55.5259V15.2413H54.4911ZM54.4911 18.9473V20.5356H55.5259V18.9473H54.4911ZM54.4911 22.6534V24.2416H55.5259V22.6534H54.4911ZM54.4911 26.3594V27.9477H55.5259V26.3594H54.4911ZM54.4911 30.0654V31.6537H55.5259V30.0654H54.4911ZM54.4911 33.7715V35.3598H55.5259V33.7715H54.4911ZM54.4911 37.4774V39.0658H55.5259V37.4774H54.4911ZM54.4911 41.1835V42.7717H55.5259V41.1835H54.4911ZM54.4911 44.8895V46.4778H55.5259V44.8895H54.4911ZM54.4911 48.5955V50.1838H55.5259V48.5955H54.4911ZM54.4911 52.3016V53.0957H55.5259V52.3016H54.4911Z" fill="white"/>
<path d="M23.8852 58.9541C23.7841 59.0559 23.7841 59.2208 23.8852 59.3225L25.5316 60.98C25.6327 61.0818 25.7965 61.0818 25.8975 60.98C25.9985 60.8784 25.9985 60.7134 25.8975 60.6117L24.434 59.1382L25.8975 57.6649C25.9985 57.5631 25.9985 57.3982 25.8975 57.2966C25.7965 57.1948 25.6327 57.1948 25.5316 57.2966L23.8852 58.9541ZM45.8794 59.3225C45.9804 59.2208 45.9804 59.0559 45.8794 58.9541L44.233 57.2966C44.1319 57.1948 43.9681 57.1948 43.867 57.2966C43.7661 57.3982 43.7661 57.5631 43.867 57.6649L45.3306 59.1382L43.867 60.6117C43.7661 60.7134 43.7661 60.8784 43.867 60.98C43.9681 61.0818 44.1319 61.0818 44.233 60.98L45.8794 59.3225ZM24.8406 59.3987C24.9834 59.3987 25.0993 59.2822 25.0993 59.1382C25.0993 58.9944 24.9834 58.8779 24.8406 58.8779V59.3987ZM26.9004 58.8779C26.7575 58.8779 26.6417 58.9944 26.6417 59.1382C26.6417 59.2822 26.7575 59.3987 26.9004 59.3987V58.8779ZM28.4454 59.3987C28.5882 59.3987 28.704 59.2822 28.704 59.1382C28.704 58.9944 28.5882 58.8779 28.4454 58.8779V59.3987ZM30.5052 58.8779C30.3622 58.8779 30.2465 58.9944 30.2465 59.1382C30.2465 59.2822 30.3622 59.3987 30.5052 59.3987V58.8779ZM32.05 59.3987C32.193 59.3987 32.3087 59.2822 32.3087 59.1382C32.3087 58.9944 32.193 58.8779 32.05 58.8779V59.3987ZM34.1098 58.8779C33.967 58.8779 33.8511 58.9944 33.8511 59.1382C33.8511 59.2822 33.967 59.3987 34.1098 59.3987V58.8779ZM35.6547 59.3987C35.7976 59.3987 35.9135 59.2822 35.9135 59.1382C35.9135 58.9944 35.7976 58.8779 35.6547 58.8779V59.3987ZM37.7146 58.8779C37.5717 58.8779 37.4559 58.9944 37.4559 59.1382C37.4559 59.2822 37.5717 59.3987 37.7146 59.3987V58.8779ZM39.2595 59.3987C39.4023 59.3987 39.5181 59.2822 39.5181 59.1382C39.5181 58.9944 39.4023 58.8779 39.2595 58.8779V59.3987ZM41.3193 58.8779C41.1764 58.8779 41.0606 58.9944 41.0606 59.1382C41.0606 59.2822 41.1764 59.3987 41.3193 59.3987V58.8779ZM42.8641 59.3987C43.0071 59.3987 43.1229 59.2822 43.1229 59.1382C43.1229 58.9944 43.0071 58.8779 42.8641 58.8779V59.3987ZM44.924 58.8779C44.7811 58.8779 44.6652 58.9944 44.6652 59.1382C44.6652 59.2822 44.7811 59.3987 44.924 59.3987V58.8779ZM24.0681 59.3987H24.8406V58.8779H24.0681V59.3987ZM26.9004 59.3987H28.4454V58.8779H26.9004V59.3987ZM30.5052 59.3987H32.05V58.8779H30.5052V59.3987ZM34.1098 59.3987H35.6547V58.8779H34.1098V59.3987ZM37.7146 59.3987H39.2595V58.8779H37.7146V59.3987ZM41.3193 59.3987H42.8641V58.8779H41.3193V59.3987ZM44.924 59.3987H45.6964V58.8779H44.924V59.3987ZM23.7023 58.7699C23.5003 58.9734 23.5003 59.3033 23.7023 59.5067L26.9952 62.8218C27.1972 63.0252 27.5248 63.0252 27.7269 62.8218C27.929 62.6184 27.929 62.2885 27.7269 62.0851L24.7999 59.1382L27.7269 56.1915C27.929 55.988 27.929 55.6582 27.7269 55.4548C27.5248 55.2514 27.1972 55.2514 26.9952 55.4548L23.7023 58.7699ZM46.0623 59.5067C46.2644 59.3033 46.2644 58.9734 46.0623 58.7699L42.7694 55.4548C42.5674 55.2514 42.2398 55.2514 42.0378 55.4548C41.8356 55.6582 41.8356 55.988 42.0378 56.1915L44.9647 59.1382L42.0378 62.0851C41.8356 62.2885 41.8356 62.6184 42.0378 62.8218C42.2398 63.0252 42.5674 63.0252 42.7694 62.8218L46.0623 59.5067ZM24.8406 59.6592C25.1264 59.6592 25.3581 59.426 25.3581 59.1382C25.3581 58.8506 25.1264 58.6174 24.8406 58.6174V59.6592ZM26.9004 58.6174C26.6146 58.6174 26.383 58.8506 26.383 59.1382C26.383 59.426 26.6146 59.6592 26.9004 59.6592V58.6174ZM28.4454 59.6592C28.731 59.6592 28.9627 59.426 28.9627 59.1382C28.9627 58.8506 28.731 58.6174 28.4454 58.6174V59.6592ZM30.5052 58.6174C30.2194 58.6174 29.9877 58.8506 29.9877 59.1382C29.9877 59.426 30.2194 59.6592 30.5052 59.6592V58.6174ZM32.05 59.6592C32.3358 59.6592 32.5675 59.426 32.5675 59.1382C32.5675 58.8506 32.3358 58.6174 32.05 58.6174V59.6592ZM34.1098 58.6174C33.8242 58.6174 33.5924 58.8506 33.5924 59.1382C33.5924 59.426 33.8242 59.6592 34.1098 59.6592V58.6174ZM35.6547 59.6592C35.9406 59.6592 36.1722 59.426 36.1722 59.1382C36.1722 58.8506 35.9406 58.6174 35.6547 58.6174V59.6592ZM37.7146 58.6174C37.4288 58.6174 37.1971 58.8506 37.1971 59.1382C37.1971 59.426 37.4288 59.6592 37.7146 59.6592V58.6174ZM39.2595 59.6592C39.5452 59.6592 39.7768 59.426 39.7768 59.1382C39.7768 58.8506 39.5452 58.6174 39.2595 58.6174V59.6592ZM41.3193 58.6174C41.0335 58.6174 40.8019 58.8506 40.8019 59.1382C40.8019 59.426 41.0335 59.6592 41.3193 59.6592V58.6174ZM42.8641 59.6592C43.1499 59.6592 43.3816 59.426 43.3816 59.1382C43.3816 58.8506 43.1499 58.6174 42.8641 58.6174V59.6592ZM44.924 58.6174C44.6383 58.6174 44.4066 58.8506 44.4066 59.1382C44.4066 59.426 44.6383 59.6592 44.924 59.6592V58.6174ZM24.0681 59.6592H24.8406V58.6174H24.0681V59.6592ZM26.9004 59.6592H28.4454V58.6174H26.9004V59.6592ZM30.5052 59.6592H32.05V58.6174H30.5052V59.6592ZM34.1098 59.6592H35.6547V58.6174H34.1098V59.6592ZM37.7146 59.6592H39.2595V58.6174H37.7146V59.6592ZM41.3193 59.6592H42.8641V58.6174H41.3193V59.6592ZM44.924 59.6592H45.6964V58.6174H44.924V59.6592Z" fill="white"/>
</g>
<defs>
<clipPath id="clip0_1_649">
<rect width="71" height="63" fill="white"/>
</clipPath>
</defs>
</svg>
